<svg xmlns="http://www.w3.org/2000/svg" viewBox="0 0 750 500"><g id="freepik--background-complete--inject-72"><g><g><g><g><path d="M673.734,306.228h-180.746c-3.232,0-5.862-2.63-5.862-5.862V37.092c0-3.232,2.63-5.862,5.862-5.862h180.746c3.232,0,5.862,2.629,5.862,5.862V300.365c0,3.233-2.63,5.862-5.862,5.862ZM492.988,31.48c-3.095,0-5.612,2.518-5.612,5.612V300.365c0,3.095,2.518,5.612,5.612,5.612h180.746c3.095,0,5.612-2.518,5.612-5.612V37.092c0-3.094-2.518-5.612-5.612-5.612h-180.746Z" style="fill:#e0e0e0;"></path><path d="M465.306,306.228h-180.747c-3.232,0-5.862-2.63-5.862-5.862V37.092c0-3.232,2.629-5.862,5.862-5.862h180.747c3.232,0,5.862,2.629,5.862,5.862V300.365c0,3.233-2.63,5.862-5.862,5.862ZM284.559,31.48c-3.094,0-5.612,2.518-5.612,5.612V300.365c0,3.095,2.518,5.612,5.612,5.612h180.747c3.095,0,5.612-2.518,5.612-5.612V37.092c0-3.094-2.518-5.612-5.612-5.612h-180.747Z" style="fill:#e0e0e0;"></path></g><path d="M257.012,306.228H76.266c-3.232,0-5.862-2.63-5.862-5.862V37.092c0-3.232,2.629-5.862,5.862-5.862h180.746c3.232,0,5.862,2.629,5.862,5.862V300.365c0,3.233-2.63,5.862-5.862,5.862ZM76.266,31.48c-3.094,0-5.612,2.518-5.612,5.612V300.365c0,3.095,2.518,5.612,5.612,5.612h180.746c3.095,0,5.612-2.518,5.612-5.612V37.092c0-3.094-2.517-5.612-5.612-5.612H76.266Z" style="fill:#e0e0e0;"></path></g><rect y="367.297" width="750" height=".12" style="fill:#e0e0e0;"></rect></g><g><rect x="653.626" y="396.673" width="55.729" height=".421" style="fill:#ebebeb;"></rect><rect x="495.044" y="401.239" width="14.627" height=".421" style="fill:#ebebeb;"></rect><rect x="40.645" y="383.876" width="72.675" height=".421" style="fill:#ebebeb;"></rect><rect x="128.299" y="383.876" width="10.655" height=".421" style="fill:#ebebeb;"></rect><rect x="173.586" y="390.98" width="157.613" height=".421" style="fill:#ebebeb;"></rect></g></g><g><rect x="539.559" y="57.489" width="102.237" height="131.172" style="fill:#e6e6e6;"></rect><rect x="516.685" y="57.489" width="120.094" height="131.172" style="fill:#f0f0f0;"></rect><rect x="527.758" y="69.14" width="97.427" height="107.87" style="fill:#fff;"></rect><rect x="559.761" y="103.606" width="35.169" height="38.938" style="fill:#f0f0f0;"></rect></g><g><rect x="120.568" y="57.489" width="102.237" height="131.172" style="fill:#e6e6e6;"></rect><rect x="97.694" y="57.489" width="120.094" height="131.172" style="fill:#f0f0f0;"></rect><rect x="108.767" y="69.14" width="97.427" height="107.87" style="fill:#fff;"></rect><rect x="140.77" y="103.606" width="35.169" height="38.938" style="fill:#f0f0f0;"></rect></g></g><g id="freepik--Shadow--inject-72"><ellipse cx="380.041" cy="359.504" rx="259.264" ry="36.279" style="fill:#f5f5f5;"></ellipse></g><g id="freepik--Table--inject-72"><path d="M734.455,307.142H15.545c-.276,0-.5-.224-.5-.5s.224-.5,.5-.5H734.455c.276,0,.5,.224,.5,.5s-.224,.5-.5,.5Z" style="fill:#263238;"></path></g><g id="freepik--Mouse--inject-72"><g><path d="M554.909,400.403s-2.1-6.467,.788-8.549c2.888-2.082,19.338-2.153,27.617-.765,8.279,1.388,15.703,6.316,18.783,12.7,3.08,6.384,5.755,24.463-12.515,25.258-21.274,.927-31.814-18.55-34.674-28.645Z" style="fill:#263238;"></path><path d="M604.154,411.424c-.529,3.258-2.79,11.061-12.358,12.014-12.131,1.209-21.645-9.438-25.269-15.436-3.491-5.778-8.982-11.668-11.962-14.617-.458,1.181-.453,2.661-.3,3.958,2.46,2.164,5.605,5.301,7.472,8.596,2.871,5.067,6.531,16.674,19.414,20.797,10.558,3.379,17.44-.978,20.781-3.618,2.246-3.414,2.655-7.782,2.222-11.694Z" style="fill:#364FB2;"></path><path d="M568.566,390.157s3.491,2.193,4.841,3.815c1.35,1.622,4.388,4.136,6.976,3.487,2.588-.649,.975-3.796-4.201-7.113,0,0-4.191-1.131-7.616-.19Z" style="fill:#364FB2;"></path></g></g><g id="freepik--Keyboard--inject-72"><g><path d="M232.963,461.351c-5.675-.013-9.909-5.222-8.762-10.78,3.394-16.454,9.936-46.268,12.103-56.113,.418-1.901,2.103-3.249,4.05-3.245l290.272,.564c2.516,.005,4.699,1.735,5.279,4.183l12.798,54.036c1.358,5.734-3.062,11.205-8.952,11.073-20.27-.452-61.063-1.398-73.276-1.941-16.47-.732-62.586,1.83-84.18,2.196-17.886,.303-116.121,.104-149.332,.027Z" style="fill:#263238;"></path><path d="M508.565,421.843l-.666-3.522c-.152-.802-.853-1.383-1.669-1.383h-7.958c-1.043,0-1.84,.932-1.678,1.962l.552,3.522c.13,.827,.842,1.436,1.679,1.436h8.071c1.065,0,1.867-.968,1.669-2.015Z" style="fill:#364FB2;"></path><path d="M495.452,421.896l-.552-3.522c-.13-.827-.842-1.436-1.679-1.436h-6.905c-1.016,0-1.804,.885-1.688,1.894l.408,3.522c.099,.857,.825,1.504,1.688,1.504h7.049c1.043,0,1.84-.931,1.679-1.962Z" style="fill:#364FB2;"></path><path d="M495.358,426.758h-7.254c-1.016,0-1.805,.885-1.688,1.894l.408,3.522c.099,.857,.825,1.504,1.688,1.504h7.398c1.043,0,1.84-.931,1.679-1.962l-.552-3.522c-.13-.827-.842-1.436-1.679-1.436Z" style="fill:#364FB2;"></path><path d="M525.251,438.22c-.189-.757-.869-1.288-1.649-1.288h-11.19l-.607,.115-.022-.115h-12.923l-.575,.09-.014-.09h-9.056c-1.016,0-1.805,.885-1.688,1.894l.441,3.813c.1,.865,.838,1.515,1.709,1.504l34.787-.442c1.096-.014,1.892-1.047,1.627-2.11l-.841-3.371Z" style="fill:#364FB2;"></path><path d="M508.835,405.776h6.36c1.105,0,1.916-1.038,1.649-2.11l-.404-1.62c-.189-.757-.869-1.288-1.648-1.288h-6.262c-1.065,0-1.867,.968-1.669,2.015l.306,1.619c.152,.802,.853,1.383,1.669,1.383Z" style="fill:#364FB2;"></path><path d="M496.207,405.776h7.551c1.065,0,1.867-.968,1.669-2.015l-.306-1.62c-.152-.802-.853-1.383-1.669-1.383h-7.499c-1.043,0-1.84,.931-1.679,1.962l.254,1.62c.129,.827,.842,1.436,1.678,1.436Z" style="fill:#364FB2;"></path><path d="M520.338,405.776h5.417c1.139,0,1.955-1.099,1.627-2.189l-.488-1.62c-.216-.718-.877-1.209-1.627-1.209h-5.334c-1.105,0-1.916,1.038-1.649,2.11l.404,1.62c.189,.757,.869,1.288,1.648,1.288Z" style="fill:#364FB2;"></path><path d="M538.475,441.006l-7.449-23.105c-.216-.718-.877-1.209-1.627-1.209h-6.068c-1.105,0-1.916,1.038-1.649,2.11l6.292,22.82c.244,.886,1.046,1.503,1.965,1.511l6.93,.061c1.13-.014,1.931-1.107,1.605-2.189Z" style="fill:#364FB2;"></path><path d="M492.835,403.814l-.254-1.62c-.13-.827-.842-1.436-1.678-1.436h-6.322c-1.016,0-1.805,.885-1.688,1.894l.187,1.62c.099,.857,.825,1.504,1.688,1.504h6.388c1.043,0,1.84-.932,1.679-1.962Z" style="fill:#364FB2;"></path><path d="M447.877,414.286h6.7c1.043,0,1.84-.931,1.678-1.962l-.409-2.608c-.129-.827-.842-1.436-1.679-1.436h-6.593c-1.016,0-1.805,.885-1.688,1.894l.302,2.608c.099,.857,.825,1.504,1.688,1.504Z" style="fill:#364FB2;"></path><path d="M459.627,414.286h7.796c1.065,0,1.867-.968,1.669-2.015l-.493-2.608c-.152-.802-.853-1.383-1.67-1.383h-7.712c-1.043,0-1.84,.931-1.679,1.962l.409,2.608c.13,.827,.842,1.436,1.679,1.436Z" style="fill:#364FB2;"></path><path d="M471.158,405.776h6.36c1.105,0,1.916-1.038,1.649-2.11l-.404-1.62c-.189-.757-.869-1.288-1.649-1.288h-6.262c-1.065,0-1.867,.968-1.669,2.015l.306,1.619c.152,.802,.853,1.383,1.669,1.383Z" style="fill:#364FB2;"></path><path d="M480.968,412.175l-.651-2.608c-.189-.757-.869-1.288-1.648-1.288h-6.661c-1.065,0-1.867,.968-1.669,2.015l.493,2.608c.152,.802,.853,1.383,1.669,1.383h6.819c1.105,0,1.916-1.038,1.648-2.11Z" style="fill:#364FB2;"></path><path d="M458.53,405.776h7.551c1.065,0,1.867-.968,1.669-2.015l-.306-1.62c-.152-.802-.853-1.383-1.669-1.383h-7.499c-1.043,0-1.84,.931-1.679,1.962l.254,1.62c.13,.827,.842,1.436,1.679,1.436Z" style="fill:#364FB2;"></path><path d="M455.158,403.814l-.254-1.62c-.13-.827-.842-1.436-1.679-1.436h-6.322c-1.016,0-1.805,.885-1.688,1.894l.187,1.62c.099,.857,.825,1.504,1.688,1.504h6.388c1.043,0,1.84-.932,1.678-1.962Z" style="fill:#364FB2;"></path><path d="M523.881,431.568l-.879-3.522c-.189-.757-.869-1.288-1.648-1.288h-7.635c-1.065,0-1.867,.968-1.669,2.015l.666,3.522c.152,.802,.853,1.383,1.669,1.383h7.848c1.105,0,1.916-1.038,1.648-2.11Z" style="fill:#364FB2;"></path><path d="M520.955,421.748l-.878-3.522c-.189-.757-.869-1.288-1.649-1.288h-7.121c-1.065,0-1.867,.968-1.669,2.015l.666,3.522c.152,.802,.853,1.383,1.669,1.383h7.333c1.105,0,1.916-1.038,1.648-2.11Z" style="fill:#364FB2;"></path><g><path d="M485.782,414.286h6.7c1.043,0,1.84-.931,1.679-1.962l-.409-2.608c-.13-.827-.842-1.436-1.679-1.436h-6.593c-1.016,0-1.805,.885-1.688,1.894l.302,2.608c.099,.857,.825,1.504,1.688,1.504Z" style="fill:#364FB2;"></path><path d="M497.532,414.286h7.796c1.065,0,1.867-.968,1.669-2.015l-.493-2.608c-.152-.802-.853-1.383-1.669-1.383h-7.712c-1.043,0-1.84,.932-1.679,1.962l.409,2.608c.13,.827,.842,1.436,1.678,1.436Z" style="fill:#364FB2;"></path><path d="M518.874,412.175l-.651-2.608c-.189-.757-.869-1.288-1.649-1.288h-6.661c-1.065,0-1.867,.968-1.669,2.015l.493,2.608c.152,.802,.853,1.383,1.67,1.383h6.819c1.105,0,1.916-1.038,1.648-2.11Z" style="fill:#364FB2;"></path><path d="M529.805,412.097l-.859-2.791c-.188-.61-.751-1.026-1.389-1.026h-5.84c-1.105,0-1.916,1.038-1.648,2.11l.651,2.608c.189,.757,.869,1.288,1.649,1.288h5.81c1.139,0,1.955-1.099,1.627-2.189Z" style="fill:#364FB2;"></path></g><path d="M510.977,431.664l-.666-3.522c-.152-.802-.853-1.383-1.669-1.383h-8.233c-1.043,0-1.84,.932-1.679,1.962l.552,3.522c.13,.827,.842,1.436,1.679,1.436h8.346c1.065,0,1.867-.968,1.669-2.015Z" style="fill:#364FB2;"></path><path d="M470.61,433.432l-.666-3.521c-.152-.802-.853-1.383-1.669-1.383h-7.958c-1.043,0-1.84,.932-1.679,1.962l.552,3.522c.13,.827,.842,1.436,1.679,1.436h8.071c1.065,0,1.867-.968,1.669-2.015Z" style="fill:#364FB2;"></path><path d="M456.6,437.038h-7.254c-1.016,0-1.805,.885-1.688,1.894l.408,3.522c.099,.857,.825,1.504,1.688,1.504h7.398c1.043,0,1.84-.932,1.679-1.962l-.552-3.522c-.13-.827-.842-1.436-1.679-1.436Z" style="fill:#364FB2;"></path><path d="M485.123,441.847l-.879-3.522c-.189-.757-.869-1.288-1.648-1.288h-7.635c-1.065,0-1.867,.968-1.669,2.015l.666,3.522c.152,.802,.853,1.383,1.669,1.383h7.848c1.105,0,1.916-1.038,1.649-2.11Z" style="fill:#364FB2;"></path><path d="M472.219,441.943l-.666-3.522c-.152-.802-.853-1.383-1.669-1.383h-8.233c-1.043,0-1.84,.931-1.679,1.962l.552,3.522c.13,.827,.842,1.436,1.679,1.436h8.346c1.065,0,1.867-.968,1.67-2.015Z" style="fill:#364FB2;"></path><path d="M379.142,435.745h-91.56c-.42,0-.768,.327-.794,.746l-.56,9.029c-.029,.46,.339,.849,.8,.845l92.259-.755c.442-.004,.796-.367,.789-.809l-.139-8.274c-.007-.434-.361-.782-.795-.782Z" style="fill:#364FB2;"></path><path d="M392.751,435.984h-9.959c-.701,0-1.266,.575-1.255,1.276l.123,7.325c.012,.689,.576,1.239,1.265,1.234l10.096-.083c.707-.006,1.269-.594,1.244-1.3l-.26-7.242c-.024-.675-.579-1.21-1.254-1.21Z" style="fill:#364FB2;"></path><path d="M283.665,435.745h-9.065c-.76,0-1.397,.576-1.473,1.332l-.781,7.768c-.088,.876,.604,1.635,1.485,1.628l9.37-.077c.777-.006,1.417-.613,1.465-1.389l.477-7.691c.053-.852-.624-1.572-1.477-1.572Z" style="fill:#364FB2;"></path><path d="M408.484,435.984h-11.63c-.711,0-1.279,.59-1.254,1.3l.258,7.209c.024,.679,.585,1.215,1.264,1.21l11.916-.098c.727-.006,1.296-.626,1.241-1.351l-.545-7.111c-.05-.654-.595-1.159-1.251-1.159Z" style="fill:#364FB2;"></path><path d="M270.713,445.178l.785-7.805c.088-.872-.597-1.628-1.473-1.628h-8.476c-.738,0-1.364,.544-1.466,1.275l-1.1,7.877c-.125,.895,.574,1.692,1.478,1.685l8.792-.072c.755-.006,1.385-.58,1.461-1.332Z" style="fill:#364FB2;"></path><path d="M256.953,435.745h-14.905c-.707,0-1.315,.5-1.452,1.194l-1.586,8.041c-.181,.92,.527,1.774,1.464,1.766l15.386-.126c.734-.006,1.352-.549,1.454-1.275l1.106-7.915c.124-.89-.567-1.685-1.466-1.685Z" style="fill:#364FB2;"></path><path d="M423.058,435.745h-10.462c-.731,0-1.307,.622-1.251,1.351l.542,7.078c.05,.658,.602,1.164,1.261,1.159l10.826-.089c.753-.006,1.331-.669,1.234-1.416l-.907-6.989c-.081-.625-.614-1.094-1.244-1.094Z" style="fill:#364FB2;"></path><path d="M445.347,443.683l-.885-6.702c-.093-.707-.696-1.236-1.409-1.236h-15.86c-.757,0-1.342,.665-1.244,1.416l.902,6.955c.082,.629,.62,1.099,1.255,1.093l16.005-.131c.745-.006,1.32-.656,1.237-1.396Z" style="fill:#364FB2;"></path><path d="M285.424,431.799l.245-3.96c.053-.852-.624-1.572-1.477-1.572h-8.737c-.76,0-1.397,.576-1.473,1.332l-.398,3.96c-.088,.872,.597,1.628,1.473,1.628h8.89c.782,0,1.429-.608,1.477-1.389Z" style="fill:#364FB2;"></path><path d="M392.446,426.507h-9.797c-.701,0-1.266,.575-1.255,1.276l.074,4.41c.011,.685,.57,1.234,1.255,1.234h9.881c.711,0,1.28-.59,1.254-1.3l-.158-4.41c-.024-.675-.578-1.21-1.254-1.21Z" style="fill:#364FB2;"></path><path d="M407.831,426.507h-11.283c-.711,0-1.279,.59-1.254,1.3l.158,4.41c.024,.675,.578,1.21,1.254,1.21h11.463c.731,0,1.307-.622,1.251-1.351l-.338-4.41c-.05-.654-.595-1.159-1.251-1.159Z" style="fill:#364FB2;"></path><path d="M296.295,426.267h-7.542c-.782,0-1.429,.608-1.477,1.389l-.245,3.96c-.053,.852,.624,1.572,1.477,1.572h7.721c.808,0,1.466-.648,1.48-1.455l.067-3.96c.014-.827-.653-1.505-1.48-1.505Z" style="fill:#364FB2;"></path><path d="M366.741,427.076c.007-.444-.351-.809-.795-.809h-10.834c-.439,0-.795,.356-.795,.796v5.329c0,.439,.356,.796,.795,.796h11.754c-.134-.293-.215-.63-.211-.843l.087-5.268Z" style="fill:#364FB2;"></path><path d="M379.794,427.05c-.007-.434-.361-.782-.795-.782h-9.87c-.434,0-.788,.348-.796,.782l-.088,5.321c-.004,.208-.087,.532-.219,.817h11.062c.445,0,.803-.364,.795-.809l-.089-5.329Z" style="fill:#364FB2;"></path><path d="M337.911,426.267h-9.84c-.439,0-.795,.356-.795,.796v5.294c0,.439-.356,.796-.796,.796h0c-.439,0-.795-.356-.795-.796v-5.294c0-.439-.356-.796-.795-.796h-10.946c-.439,0-.796,.356-.796,.796v5.294c0,.439-.356,.796-.795,.796h0c-.439,0-.796-.356-.796-.796v-5.294c0-.439-.356-.796-.795-.796h-10.587c-.434,0-.788,.348-.795,.782l-.09,5.329c-.007,.445,.351,.809,.795,.809h37.827c.439,0,.795-.356,.795-.795v-5.329c0-.439-.356-.796-.795-.796Z" style="fill:#364FB2;"></path><rect x="340.297" y="426.267" width="12.428" height="6.92" rx=".795" ry=".795" style="fill:#364FB2;"></rect><path d="M426.661,433.188h16.204c.749,0,1.331-.652,1.247-1.396l-.499-4.41c-.072-.635-.608-1.114-1.247-1.114h-16.277c-.757,0-1.342,.665-1.244,1.416l.572,4.41c.081,.625,.614,1.093,1.244,1.093Z" style="fill:#364FB2;"></path><path d="M270.881,426.267h-8.143c-.738,0-1.364,.544-1.466,1.275l-.553,3.96c-.124,.89,.567,1.685,1.466,1.685h8.298c.76,0,1.397-.576,1.473-1.332l.398-3.96c.088-.872-.597-1.628-1.473-1.628Z" style="fill:#364FB2;"></path><path d="M259.055,431.912l.553-3.96c.124-.89-.567-1.685-1.466-1.685h-14.416c-.707,0-1.315,.5-1.452,1.194l-.781,3.96c-.18,.915,.52,1.767,1.452,1.767h14.643c.738,0,1.364-.544,1.466-1.275Z" style="fill:#364FB2;"></path><path d="M410.693,427.618l.338,4.41c.05,.654,.595,1.159,1.251,1.159h10.244c.757,0,1.342-.665,1.244-1.416l-.572-4.41c-.081-.625-.614-1.093-1.244-1.093h-10.01c-.731,0-1.307,.622-1.251,1.351Z" style="fill:#364FB2;"></path><path d="M394.989,417.999l.158,4.41c.024,.675,.579,1.21,1.254,1.21h11.116c.731,0,1.307-.622,1.251-1.351l-.338-4.41c-.05-.654-.595-1.159-1.251-1.159h-10.936c-.711,0-1.279,.59-1.254,1.3Z" style="fill:#364FB2;"></path><path d="M284.72,416.699h-8.408c-.76,0-1.397,.576-1.473,1.332l-.398,3.96c-.088,.872,.597,1.628,1.473,1.628h8.561c.782,0,1.429-.608,1.477-1.389l.245-3.96c.053-.852-.624-1.572-1.477-1.572Z" style="fill:#364FB2;"></path><path d="M310.761,416.699h-10.443c-.434,0-.788,.348-.795,.782l-.09,5.329c-.008,.444,.351,.809,.795,.809h10.533c.439,0,.795-.356,.795-.796v-5.329c0-.439-.356-.796-.795-.796Z" style="fill:#364FB2;"></path><path d="M289.034,423.619h7.337c.808,0,1.466-.647,1.48-1.455l.067-3.96c.014-.827-.653-1.505-1.48-1.505h-7.158c-.782,0-1.429,.608-1.477,1.389l-.245,3.96c-.053,.852,.624,1.572,1.477,1.572Z" style="fill:#364FB2;"></path><path d="M420.85,416.699h-9.558c-.731,0-1.307,.622-1.251,1.351l.338,4.41c.05,.654,.595,1.159,1.251,1.159h9.793c.757,0,1.342-.665,1.245-1.416l-.572-4.41c-.081-.625-.614-1.093-1.244-1.093Z" style="fill:#364FB2;"></path><path d="M263.373,423.619h7.965c.76,0,1.397-.576,1.473-1.332l.398-3.96c.088-.872-.597-1.628-1.473-1.628h-7.81c-.738,0-1.364,.544-1.466,1.275l-.553,3.96c-.124,.89,.567,1.685,1.466,1.685Z" style="fill:#364FB2;"></path><path d="M366.086,416.699h-10.975c-.439,0-.795,.356-.795,.796v5.329c0,.439,.356,.796,.795,.796h10.887c.434,0,.788-.348,.795-.782l.088-5.329c.007-.444-.351-.809-.795-.809Z" style="fill:#364FB2;"></path><polygon points="379.638 416.699 368.487 416.699 368.372 423.619 379.754 423.619 379.638 416.699" style="fill:#364FB2;"></polygon><path d="M313.943,416.699h10.945c.439,0,.796,.356,.796,.796v5.329c0,.439-.356,.796-.796,.796h-10.946c-.439,0-.795-.356-.795-.795v-5.329c0-.439,.356-.796,.796-.796Z" style="fill:#364FB2;"></path><path d="M392.14,416.938h-9.635c-.701,0-1.266,.575-1.255,1.276l.074,4.41c.011,.685,.57,1.234,1.255,1.234h9.719c.711,0,1.28-.59,1.254-1.3l-.158-4.41c-.024-.675-.578-1.21-1.254-1.21Z" style="fill:#364FB2;"></path><path d="M328.071,416.699h9.84c.439,0,.795,.356,.795,.795v5.329c0,.439-.356,.795-.795,.795h-9.84c-.439,0-.795-.356-.795-.795v-5.329c0-.439,.356-.796,.796-.796Z" style="fill:#364FB2;"></path><path d="M341.093,416.699h10.837c.439,0,.795,.356,.795,.795v5.329c0,.439-.356,.795-.795,.795h-10.837c-.439,0-.795-.356-.795-.795v-5.329c0-.439,.356-.796,.796-.796Z" style="fill:#364FB2;"></path><path d="M260.244,422.344l.553-3.96c.124-.89-.567-1.685-1.466-1.685h-13.926c-.707,0-1.315,.5-1.452,1.194l-.781,3.96c-.18,.915,.52,1.766,1.452,1.766h14.154c.738,0,1.364-.544,1.466-1.275Z" style="fill:#364FB2;"></path><path d="M425.557,423.619h16.346c.749,0,1.331-.652,1.247-1.396l-.499-4.41c-.072-.634-.608-1.114-1.247-1.114h-16.419c-.757,0-1.342,.665-1.244,1.416l.572,4.41c.081,.625,.614,1.093,1.244,1.093Z" style="fill:#364FB2;"></path><path d="M423.855,405.666h16.079c.909,0,1.615-.791,1.513-1.694l-.222-1.963c-.087-.774-.744-1.357-1.523-1.352l-16.098,.102c-.915,.006-1.618,.811-1.501,1.719l.241,1.862c.098,.759,.745,1.327,1.51,1.327Z" style="fill:#364FB2;"></path><path d="M262.647,404.39l.129-.921c.125-.894-.573-1.691-1.475-1.685l-13.19,.083c-.703,.004-1.307,.504-1.443,1.194l-.165,.837c-.18,.915,.52,1.767,1.452,1.767h13.227c.738,0,1.364-.544,1.466-1.275Z" style="fill:#364FB2;"></path><path d="M314.095,405.666h10.946c.439,0,.795-.356,.795-.796v-2.693c0-.441-.359-.798-.8-.796l-10.946,.069c-.437,.003-.79,.358-.79,.796v2.624c0,.439,.356,.796,.796,.796Z" style="fill:#364FB2;"></path><path d="M355.264,405.666h11.153c.434,0,.788-.348,.795-.782l.049-2.955c.007-.446-.354-.811-.8-.809l-11.202,.071c-.437,.003-.79,.358-.79,.796v2.884c0,.439,.356,.796,.796,.796Z" style="fill:#364FB2;"></path><path d="M369.6,405.666h9.227c.445,0,.803-.364,.795-.809l-.051-3.033c-.007-.436-.364-.785-.8-.782l-9.127,.058c-.432,.003-.783,.35-.79,.782l-.049,2.975c-.007,.444,.351,.809,.795,.809Z" style="fill:#364FB2;"></path><path d="M328.223,405.666h9.84c.439,0,.796-.356,.796-.796v-2.775c0-.441-.359-.798-.801-.796l-9.84,.062c-.437,.003-.79,.358-.79,.796v2.713c0,.439,.356,.796,.795,.796Z" style="fill:#364FB2;"></path><path d="M341.245,405.666h10.837c.439,0,.796-.356,.796-.796v-2.864c0-.441-.359-.798-.801-.796l-10.837,.068c-.437,.003-.79,.358-.79,.796v2.796c0,.439,.356,.796,.796,.796Z" style="fill:#364FB2;"></path><path d="M409.119,402.193l.177,2.314c.05,.654,.595,1.159,1.251,1.159h8.937c.757,0,1.342-.665,1.244-1.416l-.307-2.369c-.081-.628-.619-1.097-1.252-1.093l-8.807,.056c-.728,.005-1.299,.625-1.243,1.351Z" style="fill:#364FB2;"></path><path d="M382.462,405.905h9.411c.711,0,1.28-.59,1.254-1.3l-.079-2.196c-.024-.678-.583-1.214-1.262-1.21l-9.369,.059c-.698,.004-1.259,.578-1.247,1.276l.036,2.137c.011,.685,.57,1.234,1.255,1.234Z" style="fill:#364FB2;"></path><path d="M395.976,405.666h10.459c.731,0,1.307-.622,1.251-1.351l-.175-2.288c-.05-.657-.6-1.163-1.259-1.159l-10.364,.066c-.707,.004-1.271,.593-1.246,1.3l.08,2.222c.024,.675,.578,1.21,1.254,1.21Z" style="fill:#364FB2;"></path><path d="M290.185,405.666h6.611c.808,0,1.466-.648,1.48-1.455l.019-1.145c.014-.831-.658-1.51-1.489-1.505l-6.562,.042c-.778,.005-1.42,.612-1.468,1.389l-.068,1.104c-.053,.852,.624,1.572,1.477,1.572Z" style="fill:#364FB2;"></path><path d="M277.685,405.666h7.94c.782,0,1.429-.608,1.477-1.389l.067-1.075c.053-.855-.629-1.577-1.487-1.572l-7.903,.05c-.756,.005-1.388,.579-1.463,1.332l-.103,1.025c-.088,.872,.597,1.628,1.473,1.628Z" style="fill:#364FB2;"></path><path d="M265.776,405.666h7.335c.76,0,1.397-.576,1.473-1.332l.1-.996c.088-.875-.602-1.634-1.482-1.628l-7.302,.046c-.735,.005-1.355,.548-1.456,1.275l-.133,.95c-.124,.89,.567,1.685,1.466,1.685Z" style="fill:#364FB2;"></path><path d="M300.652,405.666h10.261c.439,0,.796-.356,.796-.796v-2.604c0-.441-.359-.798-.801-.796l-10.219,.065c-.432,.003-.783,.35-.79,.782l-.043,2.539c-.007,.444,.351,.809,.795,.809Z" style="fill:#364FB2;"></path><path d="M289.562,414.286h6.953c.808,0,1.466-.648,1.48-1.455l.051-3.046c.014-.827-.653-1.505-1.48-1.505h-6.816c-.782,0-1.429,.608-1.477,1.388l-.189,3.046c-.053,.852,.624,1.572,1.477,1.572Z" style="fill:#364FB2;"></path><path d="M276.769,414.286h8.233c.782,0,1.429-.608,1.477-1.389l.189-3.046c.053-.852-.624-1.572-1.477-1.572h-8.115c-.76,0-1.397,.576-1.473,1.332l-.306,3.046c-.088,.872,.597,1.628,1.473,1.628Z" style="fill:#364FB2;"></path><path d="M300.371,414.286h10.39c.439,0,.795-.356,.795-.796v-4.415c0-.439-.356-.796-.795-.796h-10.315c-.434,0-.788,.348-.795,.782l-.074,4.415c-.007,.444,.351,.809,.795,.809Z" style="fill:#364FB2;"></path><path d="M341.093,408.28h10.837c.439,0,.795,.356,.795,.795v4.415c0,.439-.356,.795-.795,.795h-10.837c-.439,0-.795-.356-.795-.795v-4.415c0-.439,.356-.796,.796-.796Z" style="fill:#364FB2;"></path><path d="M328.071,408.28h9.84c.439,0,.795,.356,.795,.795v4.415c0,.439-.356,.795-.795,.795h-9.84c-.439,0-.795-.356-.795-.795v-4.415c0-.439,.356-.796,.796-.796Z" style="fill:#364FB2;"></path><path d="M355.112,414.286h11.027c.434,0,.788-.348,.795-.782l.073-4.415c.007-.444-.351-.809-.795-.809h-11.1c-.439,0-.795,.356-.795,.796v4.415c0,.439,.356,.796,.795,.796Z" style="fill:#364FB2;"></path><path d="M313.943,408.28h10.945c.439,0,.795,.356,.795,.795v4.415c0,.439-.356,.795-.795,.795h-10.946c-.439,0-.796-.356-.796-.796v-4.415c0-.439,.356-.796,.796-.796Z" style="fill:#364FB2;"></path><path d="M382.437,414.525h9.556c.711,0,1.279-.59,1.254-1.3l-.125-3.496c-.024-.675-.578-1.21-1.254-1.21h-9.49c-.701,0-1.266,.575-1.255,1.276l.059,3.496c.011,.685,.57,1.234,1.255,1.234Z" style="fill:#364FB2;"></path><path d="M369.789,414.286h8.546c.701,0,1.266-.575,1.255-1.276l-.059-3.496c-.011-.685-.57-1.234-1.255-1.234h-8.43c-.685,0-1.243,.549-1.255,1.234l-.058,3.496c-.012,.701,.553,1.276,1.255,1.276Z" style="fill:#364FB2;"></path><path d="M406.597,408.28h-10.626c-.711,0-1.279,.59-1.254,1.3l.125,3.496c.024,.675,.579,1.21,1.254,1.21h10.769c.731,0,1.307-.622,1.251-1.351l-.268-3.496c-.05-.654-.595-1.159-1.251-1.159Z" style="fill:#364FB2;"></path><path d="M424.453,414.286h16.488c.749,0,1.331-.652,1.247-1.396l-.395-3.496c-.072-.634-.608-1.114-1.247-1.114h-16.546c-.757,0-1.342,.665-1.244,1.416l.454,3.496c.081,.625,.614,1.093,1.244,1.093Z" style="fill:#364FB2;"></path><path d="M273.667,412.953l.306-3.046c.088-.872-.597-1.628-1.473-1.628h-7.513c-.738,0-1.364,.544-1.466,1.275l-.425,3.046c-.124,.89,.567,1.685,1.466,1.685h7.632c.76,0,1.397-.576,1.473-1.332Z" style="fill:#364FB2;"></path><path d="M246.303,414.286h13.664c.738,0,1.364-.544,1.466-1.275l.425-3.046c.124-.89-.567-1.685-1.466-1.685h-13.488c-.707,0-1.315,.5-1.452,1.194l-.601,3.046c-.18,.915,.52,1.767,1.452,1.767Z" style="fill:#364FB2;"></path><path d="M409.458,409.63l.268,3.496c.05,.654,.595,1.159,1.251,1.159h9.341c.757,0,1.342-.665,1.244-1.416l-.454-3.496c-.081-.625-.614-1.093-1.244-1.093h-9.155c-.731,0-1.307,.622-1.251,1.351Z" style="fill:#364FB2;"></path><path d="M548.745,450.233c-4.708,1.852-13.957,2.805-24.898,2.502-13.384-.371-53.991-2.854-97.046-1.568-47.505,1.419-186.582,.775-193.174,0-3.582-.422-6.698-1.873-8.867-3.294-.193,.928-.381,1.833-.559,2.692-1.147,5.561,3.088,10.772,8.766,10.785,33.216,.077,131.442,.276,149.326-.027,21.594-.366,67.71-2.928,84.18-2.196,12.213,.543,53.007,1.488,73.276,1.941,5.809,.13,10.176-5.19,8.994-10.836Z" style="opacity:.3;"></path></g></g><g id="freepik--CPU--inject-72"><g><path d="M169.169,146.617l45.674,21.062c3.659,1.687,6.007,5.338,6.018,9.368,.077,28.554,.383,141.113,.451,165.853,.008,3.028-1.702,5.795-4.413,7.144l-44.627,22.201-3.104-225.628Z" style="fill:#263238;"></path><path d="M169.169,146.617l45.674,21.062c3.659,1.687,6.007,5.338,6.018,9.368,.077,28.554,.383,141.113,.451,165.853,.008,3.028-1.702,5.795-4.413,7.144l-44.627,22.201-3.104-225.628Z" style="opacity:.3;"></path><rect x="87.181" y="146.617" width="88.758" height="227.172" rx="9.513" ry="9.513" style="fill:#263238;"></rect><path d="M98.071,178.883h31.362v183.045h-29.121c-7.247,0-13.131-5.884-13.131-13.131V189.774c0-6.01,4.88-10.89,10.89-10.89Z" transform="translate(216.613 540.812) rotate(180)" style="opacity:.5;"></path><rect x="145.839" y="146.617" width="3.416" height="227.172" style="fill:#364FB2;"></rect><path d="M164.957,165.704c-2.599,0-4.712-2.114-4.712-4.712s2.114-4.712,4.712-4.712,4.712,2.114,4.712,4.712-2.114,4.712-4.712,4.712Zm0-8.424c-2.047,0-3.712,1.666-3.712,3.712s1.666,3.712,3.712,3.712,3.712-1.665,3.712-3.712-1.666-3.712-3.712-3.712Z" style="fill:#364FB2;"></path><circle cx="164.957" cy="160.88" r="2.572" style="fill:#364FB2;"></circle><path d="M183.524,164.175l9.256,3.739,1.337,.54c.379,.153,.82-.167,.923-.524,.123-.427-.15-.772-.524-.923l-9.256-3.739-1.337-.54c-.379-.153-.82,.167-.923,.524-.123,.427,.15,.772,.524,.923h0Z" style="opacity:.3;"></path><path d="M183.524,167.444l9.256,3.739,1.337,.54c.379,.153,.82-.167,.923-.524,.123-.427-.15-.772-.524-.923l-9.256-3.739-1.337-.54c-.379-.153-.82,.167-.923,.524-.123,.427,.15,.772,.524,.923h0Z" style="opacity:.3;"></path><path d="M183.524,170.713l9.256,3.739,1.337,.54c.379,.153,.82-.167,.923-.524,.123-.427-.15-.772-.524-.923l-9.256-3.739-1.337-.54c-.379-.153-.82,.167-.923,.524-.123,.427,.15,.772,.524,.923h0Z" style="opacity:.3;"></path><path d="M139.832,147.212v226.577c0,.483,.75,.483,.75,0V147.212c0-.483-.75-.483-.75,0h0Z" style="fill:#364FB2;"></path></g></g><g id="freepik--Monitor--inject-72"><g><ellipse cx="388.824" cy="359.503" rx="126.219" ry="9.679" style="fill:#364FB2;"></ellipse><rect x="217.486" y="106.496" width="344.558" height="207.157" style="fill:#364FB2;"></rect><rect x="225.088" y="115.661" width="326.034" height="187.07" style="fill:#263238;"></rect><path d="M367.636,349.824s2.056,10.097,21.188,9.235c19.132-.862,29.532-9.001,29.532-9.001,0,0-7.856-.157-17.688-.197-19.219-.077-28.446-.459-33.031-.038Z" style="opacity:.3;"></path><path d="M372.788,313.653h27.879v34.245c0,6.914-5.613,12.526-12.526,12.526h-2.826c-6.914,0-12.526-5.613-12.526-12.526v-34.245h0Z" style="fill:#364FB2;"></path><polygon points="217.486 106.496 225.088 115.661 551.122 115.661 562.043 106.496 217.486 106.496" style="opacity:.3;"></polygon><polygon points="217.486 313.653 225.088 302.732 551.122 302.732 562.043 313.653 217.486 313.653" style="opacity:.3;"></polygon><path d="M225.088,290.291s179.472-53.19,189.237-80.216,7.131-94.413,7.131-94.413H225.088v174.629Z" style="fill:#fff; opacity:.2;"></path><path d="M372.788,352.788c.792,5.406,7.087,6.788,11.685,7.016,4.734,.06,10.443,.271,14.102-3.149,1-.984,1.506-2.389,1.601-3.832,.133,1.439-.279,2.978-1.231,4.152-4.749,5.947-26.162,5.659-26.158-4.188h0Z" style="fill:#263238;"></path><path d="M270.685,359.112s91.16-9.289,92.791-6.324c1.631,2.965,12.583,9.49,16.544,10.655,3.961,1.165-87.264,1.553-109.336-4.331Z" style="fill:#fff; opacity:.3;"></path><polygon points="217.486 313.653 225.088 302.732 225.088 115.661 216.704 107.278 217.486 313.653" style="fill:#fff; opacity:.2;"></polygon></g></g></svg>
